<svg xmlns="http://www.w3.org/2000/svg" width="100%" height="500" viewBox="0 0 800 500" class="cursor-default"><g><path d="M 172.36001292181356 231.0096247944889 Q 273.5 169.5 374.63998707818644 107.9903752055111" stroke="transparent" stroke-width="15" fill="none" class="cursor-pointer"/><path d="M 172.36001292181356 231.0096247944889 Q 273.5 169.5 374.63998707818644 107.9903752055111" stroke="#6b7280" stroke-width="2" fill="none" marker-end="url(#arrowhead)" class="pointer-events-none"/><rect x="258.5" y="153.5" width="30" height="16" fill="white" stroke="#e5e7eb" stroke-width="1" rx="2" class="pointer-events-none"/><text x="273.5" y="164.5" text-anchor="middle" class="text-xs font-medium fill-current pointer-events-none">01/1</text></g><g><path d="M 172.28843696571013 257.1073434210364 Q 254 303 371.7115630342899 379.8926565789636" stroke="transparent" stroke-width="15" fill="none" class="cursor-pointer"/><path d="M 172.28843696571013 257.1073434210364 Q 254 303 371.7115630342899 379.8926565789636" stroke="#6b7280" stroke-width="2" fill="none" marker-end="url(#arrowhead)" class="pointer-events-none"/><rect x="248" y="294.75" width="30" height="16" fill="white" stroke="#e5e7eb" stroke-width="1" rx="2" class="pointer-events-none"/><text x="263" y="305.75" text-anchor="middle" class="text-xs font-medium fill-current pointer-events-none">10/1</text></g><g><path d="M 175.99222358050733 243.3764933826069 Q 244 242 607.0077764194926 232.6235066173931" stroke="transparent" stroke-width="15" fill="none" class="cursor-pointer"/><path d="M 175.99222358050733 243.3764933826069 Q 244 242 607.0077764194926 232.6235066173931" stroke="#6b7280" stroke-width="2" fill="none" marker-end="url(#arrowhead)" class="pointer-events-none"/><rect x="302.75" y="224" width="30" height="16" fill="white" stroke="#e5e7eb" stroke-width="1" rx="2" class="pointer-events-none"/><text x="317.75" y="235" text-anchor="middle" class="text-xs font-medium fill-current pointer-events-none">11/1</text></g><g><path d="M 390.33716263349305 70.6497993240201 &#10;                 L 346 52&#10;                 A 40 40 0 1 1 426 52&#10;                 A 40 40 0 1 1 346 52&#10;                 L 390.33716263349305 70.6497993240201" stroke="transparent" stroke-width="15" fill="none" class="cursor-pointer"/><path d="M 390.33716263349305 70.6497993240201 &#10;                 L 346 52&#10;                 A 40 40 0 1 1 426 52&#10;                 A 40 40 0 1 1 346 52&#10;                 L 390.33716263349305 70.6497993240201" stroke="#6b7280" stroke-width="2" fill="none" marker-end="url(#arrowhead)" class="pointer-events-none"/><rect x="417.75238529788146" y="33.12735225630664" width="30" height="16" fill="white" stroke="#e5e7eb" stroke-width="1" rx="2" class="pointer-events-none"/><text x="432.75238529788146" y="44.12735225630664" text-anchor="middle" class="text-xs font-medium fill-current pointer-events-none">01/0</text></g><g><path d="M 395.74833490005244 119.99873326145683 Q 374 97 393.25166509994756 368.00126673854317" stroke="transparent" stroke-width="15" fill="none" class="cursor-pointer"/><path d="M 395.74833490005244 119.99873326145683 Q 374 97 393.25166509994756 368.00126673854317" stroke="#6b7280" stroke-width="2" fill="none" marker-end="url(#arrowhead)" class="pointer-events-none"/><rect x="369.25" y="154.5" width="30" height="16" fill="white" stroke="#e5e7eb" stroke-width="1" rx="2" class="pointer-events-none"/><text x="384.25" y="165.5" text-anchor="middle" class="text-xs font-medium fill-current pointer-events-none">10/1</text></g><g><path d="M 417.6210068673369 107.55117771536084 Q 466 145 610.3789931326631 219.44882228463916" stroke="transparent" stroke-width="15" fill="none" class="cursor-pointer"/><path d="M 417.6210068673369 107.55117771536084 Q 466 145 610.3789931326631 219.44882228463916" stroke="#6b7280" stroke-width="2" fill="none" marker-end="url(#arrowhead)" class="pointer-events-none"/><rect x="475" y="138.25" width="30" height="16" fill="white" stroke="#e5e7eb" stroke-width="1" rx="2" class="pointer-events-none"/><text x="490" y="149.25" text-anchor="middle" class="text-xs font-medium fill-current pointer-events-none">11/1</text></g><g><path d="M 393.25166509994756 368.00126673854317 Q 486 313 395.74833490005244 119.99873326145683" stroke="transparent" stroke-width="15" fill="none" class="cursor-pointer"/><path d="M 393.25166509994756 368.00126673854317 Q 486 313 395.74833490005244 119.99873326145683" stroke="#6b7280" stroke-width="2" fill="none" marker-end="url(#arrowhead)" class="pointer-events-none"/><rect x="425.25" y="262.5" width="30" height="16" fill="white" stroke="#e5e7eb" stroke-width="1" rx="2" class="pointer-events-none"/><text x="440.25" y="273.5" text-anchor="middle" class="text-xs font-medium fill-current pointer-events-none">01/1</text></g><g><path d="M 379.0035647180503 413.7147242172855 &#10;                 L 328 430&#10;                 A 40 40 0 1 1 408 430&#10;                 A 40 40 0 1 1 328 430&#10;                 L 379.0035647180503 413.7147242172855" stroke="transparent" stroke-width="15" fill="none" class="cursor-pointer"/><path d="M 379.0035647180503 413.7147242172855 &#10;                 L 328 430&#10;                 A 40 40 0 1 1 408 430&#10;                 A 40 40 0 1 1 328 430&#10;                 L 379.0035647180503 413.7147242172855" stroke="#6b7280" stroke-width="2" fill="none" marker-end="url(#arrowhead)" class="pointer-events-none"/><rect x="313.2277295028118" y="395.12684425865666" width="30" height="16" fill="white" stroke="#e5e7eb" stroke-width="1" rx="2" class="pointer-events-none"/><text x="328.2277295028118" y="406.12684425865666" text-anchor="middle" class="text-xs font-medium fill-current pointer-events-none">10/0</text></g><g><path d="M 413.73428240843185 379.03255452821116 Q 457 345 611.2657175915682 245.9674454717888" stroke="transparent" stroke-width="15" fill="none" class="cursor-pointer"/><path d="M 413.73428240843185 379.03255452821116 Q 457 345 611.2657175915682 245.9674454717888" stroke="#6b7280" stroke-width="2" fill="none" marker-end="url(#arrowhead)" class="pointer-events-none"/><rect x="469.75" y="312.75" width="30" height="16" fill="white" stroke="#e5e7eb" stroke-width="1" rx="2" class="pointer-events-none"/><text x="484.75" y="323.75" text-anchor="middle" class="text-xs font-medium fill-current pointer-events-none">11/1</text></g><g><path d="M 610.3789931326631 219.44882228463916 Q 629 174 417.6210068673369 107.55117771536084" stroke="transparent" stroke-width="15" fill="none" class="cursor-pointer"/><path d="M 610.3789931326631 219.44882228463916 Q 629 174 417.6210068673369 107.55117771536084" stroke="#6b7280" stroke-width="2" fill="none" marker-end="url(#arrowhead)" class="pointer-events-none"/><rect x="556.5" y="152.75" width="30" height="16" fill="white" stroke="#e5e7eb" stroke-width="1" rx="2" class="pointer-events-none"/><text x="571.5" y="163.75" text-anchor="middle" class="text-xs font-medium fill-current pointer-events-none">01/1</text></g><g><path d="M 611.2657175915682 245.9674454717888 Q 642 301 413.73428240843185 379.03255452821116" stroke="transparent" stroke-width="15" fill="none" class="cursor-pointer"/><path d="M 611.2657175915682 245.9674454717888 Q 642 301 413.73428240843185 379.03255452821116" stroke="#6b7280" stroke-width="2" fill="none" marker-end="url(#arrowhead)" class="pointer-events-none"/><rect x="562.25" y="290.75" width="30" height="16" fill="white" stroke="#e5e7eb" stroke-width="1" rx="2" class="pointer-events-none"/><text x="577.25" y="301.75" text-anchor="middle" class="text-xs font-medium fill-current pointer-events-none">10/1</text></g><g><path d="M 649.9181482727276 214.56612600491366 &#10;                 L 629 196&#10;                 A 40 40 0 1 1 709 196&#10;                 A 40 40 0 1 1 629 196&#10;                 L 649.9181482727276 214.56612600491366" stroke="transparent" stroke-width="15" fill="none" class="cursor-pointer"/><path d="M 649.9181482727276 214.56612600491366 &#10;                 L 629 196&#10;                 A 40 40 0 1 1 709 196&#10;                 A 40 40 0 1 1 629 196&#10;                 L 649.9181482727276 214.56612600491366" stroke="#3b82f6" stroke-width="2" fill="none" marker-end="url(#arrowhead)" class="pointer-events-none"/><circle cx="669" cy="196" r="5" fill="#3b82f6" stroke="white" stroke-width="2" class="cursor-move"/><rect x="687.4730380705657" y="222.40284468363706" width="30" height="16" fill="white" stroke="#e5e7eb" stroke-width="1" rx="2" class="pointer-events-none"/><text x="702.4730380705657" y="233.40284468363706" text-anchor="middle" class="text-xs font-medium fill-current pointer-events-none">11/0</text></g><g><circle cx="151" cy="244" r="25" fill="white" stroke="#10b981" stroke-width="3" class="cursor-move"/><text x="151" y="248" text-anchor="middle" class="text-sm font-medium fill-current pointer-events-none">S0</text><text x="151" y="209" text-anchor="middle" class="text-xs fill-green-600 pointer-events-none">Initial</text></g><g><circle cx="396" cy="95" r="25" fill="white" stroke="#6b7280" stroke-width="2" class="cursor-move"/><text x="396" y="99" text-anchor="middle" class="text-sm font-medium fill-current pointer-events-none">A</text></g><g><circle cx="393" cy="393" r="25" fill="#fbbf24" stroke="#f59e0b" stroke-width="4" class="cursor-move"/><text x="393" y="397" text-anchor="middle" class="text-sm font-medium fill-current pointer-events-none">B</text></g><g><circle cx="632" cy="232" r="25" fill="white" stroke="#6b7280" stroke-width="2" class="cursor-move"/><text x="632" y="236" text-anchor="middle" class="text-sm font-medium fill-current pointer-events-none">C</text></g><defs><marker id="arrowhead" markerWidth="8" markerHeight="6" refX="7" refY="3" orient="auto"><polygon points="0 0, 8 3, 0 6" fill="#6b7280"/></marker></defs><text x="50" y="30" font-size="16" font-weight="bold">Input: 10</text></svg>